<?xml version="1.0" encoding="UTF-8"?>
<svg width="128pt" height="128pt" version="1.1" viewBox="0 0 128 128" xmlns="http://www.w3.org/2000/svg">
 <path d="m98.047 72.062c-0.89453-16.895-14.336-30.594-31.105-32 1.5352-3.9688 4.4805-8.9609 10.754-11.391 1.4062 3.5859 4.8633 6.0156 8.832 6.0156 5.2461 0 9.4727-4.2227 9.4727-9.4727 0-5.2461-4.2227-9.4727-9.4727-9.4727-5.2461 0-9.4727 4.2227-9.4727 9.4727v0.51172c-8.0625 2.9453-11.648 9.4727-13.312 14.336-18.047 0.12891-32.77 14.336-33.793 32.129-14.207 3.0742-23.551 8.0664-23.551 13.695 0 4.9922 7.168 9.4727 18.559 12.543 0.38281 7.6797 6.7852 13.824 14.465 13.824 6.2734 0 11.648-3.9688 13.695-9.6016 3.5859 0.25781 7.168 0.25781 10.879 0.25781 3.7109 0 7.4258-0.12891 10.879-0.25781 2.0469 5.6328 7.4258 9.6016 13.695 9.6016 7.8086 0 14.078-6.1445 14.465-13.824 11.398-3.0703 18.566-7.5508 18.566-12.543 0-5.6289-9.3438-10.621-23.555-13.824zm-11.52-53.375c3.5859 0 6.5273 2.9453 6.5273 6.5273 0 3.5859-2.9453 6.5273-6.5273 6.5273-3.5859 0-6.5273-2.9453-6.5273-6.5273 0-3.582 2.9453-6.5273 6.5273-6.5273zm-36.734 64.641c-5.375 0-9.7266-4.3516-9.7266-9.7266s4.3516-9.7266 9.7266-9.7266 9.7266 4.3516 9.7266 9.7266-4.3516 9.7266-9.7266 9.7266zm28.414-3.457c-3.457 0-6.2734-2.8164-6.2734-6.2734 0-3.457 2.8164-6.2734 6.2734-6.2734s6.2734 2.8164 6.2734 6.2734c0 3.457-2.8164 6.2734-6.2734 6.2734z" fill="#fff"/>
</svg>
