<?xml version="1.0" encoding="UTF-8"?>
<svg width="128pt" height="128pt" version="1.1" viewBox="0 0 128 128" xmlns="http://www.w3.org/2000/svg">
 <g fill="#fff">
  <path d="m78.055 92.301c-0.625 4.6953-3.6328 7.4492-8.0078 8.8281-1.0469 0.33203-2.1445 0.49219-3.375 0.77344v5.4414h-4.5352v-5.3906c-9.043-1.9688-12.973-6.1562-12.277-13.059h7.8945c0.066406 0.48047 0.14062 0.95312 0.19531 1.4219 0.33203 2.9609 2.3164 4.9023 5.2734 5.125 0.57422 0.046875 1.1523 0.046875 1.7305 0.023438 2.4688-0.085938 4.1016-1.2109 4.7305-3.2461 0.74219-2.3711 0.10156-4.9297-1.8438-6.1875-1.5117-0.98047-3.2461-1.6172-4.8633-2.4336-2.5195-1.2539-5.25-2.2305-7.5078-3.8477-6.5977-4.7305-5.6523-15.172 1.6211-18.82 1.6406-0.82031 3.5078-1.2109 5.5273-1.8906v-5.6641h4.5078v5.9688c3.9258 0.72656 7.2812 2.2656 9.3633 5.7969 1.125 1.9023 1.7227 4.6406 1.4844 6.8477h-7.9492c-0.20313-1.0352-0.29688-2.0391-0.61328-2.9766-0.75-2.2656-2.5547-3.3984-5.1133-3.3594-2.4727 0.042968-3.8984 0.96875-4.5664 2.9844-0.80859 2.4453-0.28125 5 1.6133 6.2305 1.6211 1.0625 3.4609 1.8086 5.2188 2.6719 2.2305 1.0938 4.5781 1.9844 6.6836 3.2812 4.2891 2.625 5.4414 6.793 4.8086 11.48z"/>
  <path d="m107.77 116.73c-0.61328-1.2305-1.4336-2.2852-2.1602-3.2109-0.69922-0.89063-1.3555-1.7344-1.6992-2.5586-2.3672-5.7266-1.3008-13.629-0.29297-19.074 2.8984-15.66 2.2422-19.957-2.0078-30.535-3.6133-8.9883-10.703-17.074-20.137-23.035l1.8398-5.1953c1.3086-3.5742 2.8867-7.957 3.4062-9.6484 0.16406-0.53516 0.49219-1.2656 1.0273-2.2695l0.21484-0.43359c0.41016-0.82422 0.87109-1.7617 1.2656-2.7969 1.0938-2.9375 0.77344-6-0.87891-8.4141-2.0977-2.9922-5.9219-4.3555-9.8906-3.4141-1.1797 0.27344-2.2344 0.64844-3.1562 1.0156-0.070312-0.11328-0.14844-0.22266-0.23047-0.33984-2.4414-3.5391-5.5938-5.3359-9.3711-5.3359-0.22656 0-0.46875 0.015625-0.77734 0.039063-2.7305 0.17969-6.5508 1.3516-9.2148 5.8867l-0.11719 0.1875c-0.25781 0.4375-0.48047 0.88281-0.6875 1.3438-0.11328 0-0.23047 0.003907-0.36719 0.003907l-2.5547-0.015625c-4.3398 0-8.6875 0.55078-11.062 4.543-1.5195 2.5664-1.5898 5.7539-0.1875 8.7383 0.60156 1.293 6.0898 9.7109 8.8164 13.812-1.1445 0.72656-2.3047 1.543-3.4727 2.3828-0.38672 0.28125-0.74219 0.53516-1.0547 0.75391-5.8438 4.0664-10.539 8.6055-13.961 13.484-10.953 15.617-9.1367 28.129-7.082 39.238 0.11719 0.62891 0.23828 1.2617 0.35938 1.8906 0.48047 2.4961 0.93359 4.8555 1.1133 7.2266 0.17188 2.2852-0.31641 4.6758-1.5 7.3086-0.3125 0.69922-0.96094 1.6758-1.5859 2.6172-0.59766 0.90234-1.2148 1.832-1.7539 2.8086-0.92188 1.6719-0.98828 3.6289-0.19141 5.3672 0.79688 1.7305 2.3828 2.9961 4.2461 3.3867 3.4961 0.73047 6.8594 0.42578 10.113 0.125 0.89844-0.082032 1.7461-0.16016 2.6016-0.21484 3.8711-0.25781 7.7344 0.78125 11.824 1.8789 2.1094 0.56641 4.2891 1.1523 6.5234 1.5664 2.5039 0.46484 4.9805 0.65625 7.4453 0.65234 5.7539 0 11.391-1.043 16.895-2.0586 0.56641-0.10547 1.1328-0.21094 1.6992-0.3125 0.60547-0.10938 1.2148-0.22656 1.8242-0.33984 2.9883-0.5625 6.0781-1.1445 8.9961-1.2461 0.097656-0.003907 0.31641-0.011719 0.63281-0.019531 1.3477-0.035157 4.1445-0.10938 6.707-0.23047 4.7852-0.22656 6.5742-0.3125 7.7031-2.1875 0.625-1.0273 0.67578-2.2891 0.14062-3.3711zm-10.281-3.1172c0.26953 0.64844 0.58594 1.2422 0.92578 1.793-1.3906 0.054688-3.1523 0.11719-5.375 0.17578-0.35156 0.011718-0.59375 0.015624-0.69922 0.019531-3.4453 0.12109-6.7969 0.75391-10.039 1.3633-0.59766 0.11328-1.1914 0.22266-1.7852 0.33594-0.57031 0.10547-1.1406 0.21094-1.7148 0.31641-7.5703 1.3984-14.723 2.7188-21.809 1.4062-1.9648-0.36328-3.918-0.89062-5.9883-1.4453-4.4609-1.1992-9.0703-2.4375-14.09-2.1016-0.94141 0.0625-1.8711 0.14844-2.7734 0.23047-2.3672 0.21484-4.625 0.42578-6.7344 0.19922 0.23828-0.375 0.49219-0.75781 0.73828-1.1289 0.78125-1.1797 1.5859-2.3945 2.1328-3.6133 1.6445-3.6641 2.3477-7.2539 2.0898-10.672-0.20703-2.7695-0.72266-5.4375-1.2188-8.0195-0.11719-0.61328-0.23438-1.2266-0.35156-1.8438-1.8594-10.039-3.5586-20.449 5.9375-33.984 2.9531-4.2109 7.0703-8.1719 12.242-11.773 0.33984-0.23828 0.72656-0.51562 1.1484-0.82031 1.4766-1.0664 5.4023-3.8984 6.9609-3.8984h6.7461c1.918 0 3.4727-1.5547 3.4727-3.4727 0-1.918-1.5547-3.4727-3.4727-3.4727h-6.7461c-0.4375 0-0.87891 0.039062-1.3203 0.10937-2.2734-3.4414-7.1055-10.914-8.5781-14.109-0.28125-0.59375-0.53516-1.4297-0.15625-2.0664 0.34375-0.58594 1.1836-0.94922 2.375-1.0234 0.38672-0.027344 0.78125-0.035156 1.1797-0.035156l1.8789 0.019531 0.64844-0.027344c0.11328 0.003906 0.22266 0.003906 0.33594 0.007813 0.46875 0.015624 0.94531 0.023437 1.4141 0.015624l2.375 8.3203c0.44531 1.5703 1.8984 2.668 3.5312 2.668 0.38672 0 0.69922-0.042969 0.96094-0.12109 1.9453-0.53125 3.1016-2.5469 2.5703-4.5078l-2.9766-10.406c0.13281-0.30859 0.28125-0.60938 0.43359-0.89063 0.93359-1.6055 2.0977-2.4062 3.6484-2.5156l0.26562-0.007813c1.3828 0 2.4609 0.69141 3.5117 2.2539 0.36328 0.51172 0.64453 1.0859 0.94531 1.6914 0.15234 0.30469 0.30469 0.61328 0.46484 0.91016 0.82812 1.543 2 1.8711 2.832 1.8711 0.55078 0 1.1289-0.12891 1.7734-0.39844l1.0781-0.46484c1.2305-0.53906 2.5-1.0977 3.7812-1.3828 1.0898-0.25781 2.0117-0.046875 2.4141 0.53906 0.30859 0.44531 0.32812 1.0938 0.058594 1.8203-0.26953 0.71484-6.5391 17.266-8.3281 21.992-0.125 0.15234-0.23828 0.3125-0.33594 0.48828-0.9375 1.6758-0.33984 3.793 1.3398 4.7266 9.3516 5.2266 16.625 12.98 19.957 21.273 3.7422 9.3164 4.2734 12.352 1.6211 26.68-1.168 6.2969-2.3633 15.547 0.70312 22.977z"/>
 </g>
</svg>
