<?xml version="1.0" encoding="UTF-8" standalone="no"?>
<!DOCTYPE svg PUBLIC "-//W3C//DTD SVG 1.1//EN"
 "http://www.w3.org/Graphics/SVG/1.1/DTD/svg11.dtd">
<!-- Generated by graphviz version 7.1.0 (20230121.1956)
 -->
<!-- Pages: 1 -->
<svg width="675pt" height="565pt"
 viewBox="0.00 0.00 674.65 565.00" xmlns="http://www.w3.org/2000/svg" xmlns:xlink="http://www.w3.org/1999/xlink">
<g id="graph0" class="graph" transform="scale(1 1) rotate(0) translate(4 561)">
<polygon fill="white" stroke="none" points="-4,4 -4,-561 670.65,-561 670.65,4 -4,4"/>
<text text-anchor="middle" x="333.33" y="-7.8" font-family="Times,serif" font-size="14.00">Lunar Frontiers</text>
<!-- Rc:ProvisionRover -->
<g id="node1" class="node">
<title>Rc:ProvisionRover</title>
<ellipse fill="none" stroke="blue" cx="111.79" cy="-473" rx="72.29" ry="18"/>
<text text-anchor="middle" x="111.79" y="-469.3" font-family="Times,serif" font-size="14.00">c:ProvisionRover</text>
</g>
<!-- Ragg:rover -->
<g id="node2" class="node">
<title>Ragg:rover</title>
<ellipse fill="none" stroke="blue" cx="331.63" cy="-257" rx="44.39" ry="18"/>
<text text-anchor="middle" x="331.63" y="-253.3" font-family="Times,serif" font-size="14.00">agg:rover</text>
</g>
<!-- Rc:ProvisionRover&#45;&gt;Ragg:rover -->
<g id="edge1" class="edge">
<title>Rc:ProvisionRover&#45;&gt;Ragg:rover</title>
<path fill="none" stroke="black" d="M176.86,-464.75C192.95,-460.76 209.6,-454.82 223.58,-446 281.58,-409.43 311.19,-329.46 323.48,-286.19"/>
<polygon fill="black" stroke="black" points="326.81,-287.31 326.04,-276.74 320.05,-285.48 326.81,-287.31"/>
<text text-anchor="middle" x="252.58" y="-435.8" font-family="Times,serif" font-size="14.00">p:in</text>
</g>
<!-- Re:RoverInitialized -->
<g id="node3" class="node">
<title>Re:RoverInitialized</title>
<ellipse fill="none" stroke="blue" cx="556.16" cy="-449" rx="74.19" ry="18"/>
<text text-anchor="middle" x="556.16" y="-445.3" font-family="Times,serif" font-size="14.00">e:RoverInitialized</text>
</g>
<!-- Ragg:rover&#45;&gt;Re:RoverInitialized -->
<g id="edge3" class="edge">
<title>Ragg:rover&#45;&gt;Re:RoverInitialized</title>
<path fill="none" stroke="black" d="M335.08,-275.34C340.5,-308.19 356.58,-376.99 399.67,-413 419.77,-429.8 446.22,-439.1 471.59,-444.15"/>
<polygon fill="black" stroke="black" points="470.81,-447.56 481.27,-445.86 472.03,-440.67 470.81,-447.56"/>
<text text-anchor="middle" x="413.67" y="-432.8" font-family="Times,serif" font-size="14.00">p:out</text>
</g>
<!-- Re:RoverDestinationChanged -->
<g id="node5" class="node">
<title>Re:RoverDestinationChanged</title>
<ellipse fill="none" stroke="blue" cx="556.16" cy="-365" rx="110.48" ry="18"/>
<text text-anchor="middle" x="556.16" y="-361.3" font-family="Times,serif" font-size="14.00">e:RoverDestinationChanged</text>
</g>
<!-- Ragg:rover&#45;&gt;Re:RoverDestinationChanged -->
<g id="edge6" class="edge">
<title>Ragg:rover&#45;&gt;Re:RoverDestinationChanged</title>
<path fill="none" stroke="black" d="M341.19,-274.85C351.87,-295.01 372.14,-327.07 399.67,-343 411.19,-349.67 423.98,-354.59 437.12,-358.2"/>
<polygon fill="black" stroke="black" points="436.21,-361.58 446.76,-360.56 437.88,-354.78 436.21,-361.58"/>
<text text-anchor="middle" x="413.67" y="-358.8" font-family="Times,serif" font-size="14.00">p:out</text>
</g>
<!-- Re:RoverStopped -->
<g id="node7" class="node">
<title>Re:RoverStopped</title>
<ellipse fill="none" stroke="blue" cx="556.16" cy="-289" rx="67.69" ry="18"/>
<text text-anchor="middle" x="556.16" y="-285.3" font-family="Times,serif" font-size="14.00">e:RoverStopped</text>
</g>
<!-- Ragg:rover&#45;&gt;Re:RoverStopped -->
<g id="edge9" class="edge">
<title>Ragg:rover&#45;&gt;Re:RoverStopped</title>
<path fill="none" stroke="black" d="M357.44,-272.11C369.68,-278.7 384.95,-285.67 399.67,-289 425.7,-294.89 454.82,-296.23 480.75,-295.66"/>
<polygon fill="black" stroke="black" points="480.65,-299.17 490.53,-295.34 480.42,-292.17 480.65,-299.17"/>
<text text-anchor="middle" x="413.67" y="-296.8" font-family="Times,serif" font-size="14.00">p:out</text>
</g>
<!-- Re:RoverStarted -->
<g id="node9" class="node">
<title>Re:RoverStarted</title>
<ellipse fill="none" stroke="blue" cx="556.16" cy="-213" rx="63.89" ry="18"/>
<text text-anchor="middle" x="556.16" y="-209.3" font-family="Times,serif" font-size="14.00">e:RoverStarted</text>
</g>
<!-- Ragg:rover&#45;&gt;Re:RoverStarted -->
<g id="edge12" class="edge">
<title>Ragg:rover&#45;&gt;Re:RoverStarted</title>
<path fill="none" stroke="black" d="M372.15,-249.18C405.35,-242.62 453.39,-233.12 491.92,-225.5"/>
<polygon fill="black" stroke="black" points="492.42,-228.97 501.55,-223.6 491.06,-222.11 492.42,-228.97"/>
<text text-anchor="middle" x="413.67" y="-245.8" font-family="Times,serif" font-size="14.00">p:out</text>
</g>
<!-- Re:ConstructionBegan -->
<g id="node11" class="node">
<title>Re:ConstructionBegan</title>
<ellipse fill="none" stroke="blue" cx="556.16" cy="-137" rx="85.29" ry="18"/>
<text text-anchor="middle" x="556.16" y="-133.3" font-family="Times,serif" font-size="14.00">e:ConstructionBegan</text>
</g>
<!-- Ragg:rover&#45;&gt;Re:ConstructionBegan -->
<g id="edge15" class="edge">
<title>Ragg:rover&#45;&gt;Re:ConstructionBegan</title>
<path fill="none" stroke="black" d="M342.85,-239.23C354.34,-220.88 374.68,-192.75 399.67,-177 421.04,-163.53 446.76,-154.58 471.08,-148.65"/>
<polygon fill="black" stroke="black" points="471.69,-152.1 480.66,-146.46 470.13,-145.27 471.69,-152.1"/>
<text text-anchor="middle" x="413.67" y="-180.8" font-family="Times,serif" font-size="14.00">p:out</text>
</g>
<!-- Re:ConstructionCancelled -->
<g id="node13" class="node">
<title>Re:ConstructionCancelled</title>
<ellipse fill="none" stroke="blue" cx="556.16" cy="-61" rx="97.48" ry="18"/>
<text text-anchor="middle" x="556.16" y="-57.3" font-family="Times,serif" font-size="14.00">e:ConstructionCancelled</text>
</g>
<!-- Ragg:rover&#45;&gt;Re:ConstructionCancelled -->
<g id="edge18" class="edge">
<title>Ragg:rover&#45;&gt;Re:ConstructionCancelled</title>
<path fill="none" stroke="black" d="M334.95,-238.61C340.18,-205.29 356.01,-134.98 399.67,-98 415.13,-84.91 434.41,-76.28 454.08,-70.62"/>
<polygon fill="black" stroke="black" points="454.76,-74.06 463.56,-68.16 453,-67.29 454.76,-74.06"/>
<text text-anchor="middle" x="413.67" y="-101.8" font-family="Times,serif" font-size="14.00">p:out</text>
</g>
<!-- Re:RoverInitialized&#45;&gt;Ragg:rover -->
<g id="edge2" class="edge">
<title>Re:RoverInitialized&#45;&gt;Ragg:rover</title>
<path fill="none" stroke="black" d="M508.65,-434.88C475.25,-422.91 430.81,-403.01 399.67,-374 373.11,-349.26 354.13,-311.57 343.29,-285.69"/>
<polygon fill="black" stroke="black" points="346.56,-284.43 339.58,-276.46 340.06,-287.04 346.56,-284.43"/>
<text text-anchor="middle" x="413.67" y="-397.8" font-family="Times,serif" font-size="14.00">p:in</text>
</g>
<!-- Rc:SetDestination -->
<g id="node4" class="node">
<title>Rc:SetDestination</title>
<ellipse fill="none" stroke="blue" cx="111.79" cy="-419" rx="68.79" ry="18"/>
<text text-anchor="middle" x="111.79" y="-415.3" font-family="Times,serif" font-size="14.00">c:SetDestination</text>
</g>
<!-- Rc:SetDestination&#45;&gt;Ragg:rover -->
<g id="edge4" class="edge">
<title>Rc:SetDestination&#45;&gt;Ragg:rover</title>
<path fill="none" stroke="black" d="M174.08,-411.09C190.96,-407.08 208.7,-401.06 223.58,-392 266.5,-365.86 299.19,-315.89 316.59,-284.62"/>
<polygon fill="black" stroke="black" points="319.51,-286.59 321.18,-276.13 313.35,-283.26 319.51,-286.59"/>
<text text-anchor="middle" x="252.58" y="-381.8" font-family="Times,serif" font-size="14.00">p:in</text>
</g>
<!-- Re:RoverDestinationChanged&#45;&gt;Ragg:rover -->
<g id="edge5" class="edge">
<title>Re:RoverDestinationChanged&#45;&gt;Ragg:rover</title>
<path fill="none" stroke="black" d="M494.34,-349.78C464.71,-341.01 429.2,-328.43 399.67,-312 384.78,-303.72 369.96,-292.01 358.05,-281.53"/>
<polygon fill="black" stroke="black" points="360.44,-278.97 350.68,-274.84 355.73,-284.15 360.44,-278.97"/>
<text text-anchor="middle" x="413.67" y="-327.8" font-family="Times,serif" font-size="14.00">p:in</text>
</g>
<!-- Rc:Stop -->
<g id="node6" class="node">
<title>Rc:Stop</title>
<ellipse fill="none" stroke="blue" cx="111.79" cy="-365" rx="33.29" ry="18"/>
<text text-anchor="middle" x="111.79" y="-361.3" font-family="Times,serif" font-size="14.00">c:Stop</text>
</g>
<!-- Rc:Stop&#45;&gt;Ragg:rover -->
<g id="edge7" class="edge">
<title>Rc:Stop&#45;&gt;Ragg:rover</title>
<path fill="none" stroke="black" d="M144.51,-360.8C167.32,-356.95 198.37,-349.98 223.58,-338 254.02,-323.54 284.23,-299.57 304.75,-281.45"/>
<polygon fill="black" stroke="black" points="306.99,-284.15 312.07,-274.85 302.3,-278.95 306.99,-284.15"/>
<text text-anchor="middle" x="252.58" y="-330.8" font-family="Times,serif" font-size="14.00">p:in</text>
</g>
<!-- Re:RoverStopped&#45;&gt;Ragg:rover -->
<g id="edge8" class="edge">
<title>Re:RoverStopped&#45;&gt;Ragg:rover</title>
<path fill="none" stroke="black" d="M496,-280.49C461.57,-275.54 418.54,-269.35 385.29,-264.57"/>
<polygon fill="black" stroke="black" points="385.86,-261.12 375.46,-263.16 384.86,-268.05 385.86,-261.12"/>
<text text-anchor="middle" x="413.67" y="-273.8" font-family="Times,serif" font-size="14.00">p:in</text>
</g>
<!-- Rc:Start -->
<g id="node8" class="node">
<title>Rc:Start</title>
<ellipse fill="none" stroke="blue" cx="111.79" cy="-311" rx="33.6" ry="18"/>
<text text-anchor="middle" x="111.79" y="-307.3" font-family="Times,serif" font-size="14.00">c:Start</text>
</g>
<!-- Rc:Start&#45;&gt;Ragg:rover -->
<g id="edge10" class="edge">
<title>Rc:Start&#45;&gt;Ragg:rover</title>
<path fill="none" stroke="black" d="M143.51,-304.32C174.05,-297.58 222.2,-286.66 263.58,-276 270.27,-274.28 277.31,-272.38 284.21,-270.47"/>
<polygon fill="black" stroke="black" points="284.73,-273.95 293.42,-267.88 282.84,-267.21 284.73,-273.95"/>
<text text-anchor="middle" x="252.58" y="-284.8" font-family="Times,serif" font-size="14.00">p:in</text>
</g>
<!-- Re:RoverStarted&#45;&gt;Ragg:rover -->
<g id="edge11" class="edge">
<title>Re:RoverStarted&#45;&gt;Ragg:rover</title>
<path fill="none" stroke="black" d="M508.6,-200.6C477,-194.43 434.75,-190.63 399.67,-203 383,-208.88 367.42,-220.85 355.48,-232.04"/>
<polygon fill="black" stroke="black" points="353.21,-229.36 348.55,-238.88 358.12,-234.35 353.21,-229.36"/>
<text text-anchor="middle" x="413.67" y="-206.8" font-family="Times,serif" font-size="14.00">p:in</text>
</g>
<!-- Rc:BuildStructure -->
<g id="node10" class="node">
<title>Rc:BuildStructure</title>
<ellipse fill="none" stroke="blue" cx="111.79" cy="-257" rx="68.79" ry="18"/>
<text text-anchor="middle" x="111.79" y="-253.3" font-family="Times,serif" font-size="14.00">c:BuildStructure</text>
</g>
<!-- Rc:BuildStructure&#45;&gt;Ragg:rover -->
<g id="edge13" class="edge">
<title>Rc:BuildStructure&#45;&gt;Ragg:rover</title>
<path fill="none" stroke="black" d="M180.82,-257C211.21,-257 246.57,-257 275.3,-257"/>
<polygon fill="black" stroke="black" points="275.26,-260.5 285.26,-257 275.26,-253.5 275.26,-260.5"/>
<text text-anchor="middle" x="252.58" y="-260.8" font-family="Times,serif" font-size="14.00">p:in</text>
</g>
<!-- Re:ConstructionBegan&#45;&gt;Ragg:rover -->
<g id="edge14" class="edge">
<title>Re:ConstructionBegan&#45;&gt;Ragg:rover</title>
<path fill="none" stroke="black" d="M511.02,-121.29C477.97,-112.43 432.93,-106.73 399.67,-127 363.91,-148.8 346.4,-196.47 338.47,-227.62"/>
<polygon fill="black" stroke="black" points="335.1,-226.66 336.22,-237.2 341.91,-228.26 335.1,-226.66"/>
<text text-anchor="middle" x="413.67" y="-130.8" font-family="Times,serif" font-size="14.00">p:in</text>
</g>
<!-- Rc:CancelConstruction -->
<g id="node12" class="node">
<title>Rc:CancelConstruction</title>
<ellipse fill="none" stroke="blue" cx="111.79" cy="-203" rx="87.18" ry="18"/>
<text text-anchor="middle" x="111.79" y="-199.3" font-family="Times,serif" font-size="14.00">c:CancelConstruction</text>
</g>
<!-- Rc:CancelConstruction&#45;&gt;Ragg:rover -->
<g id="edge16" class="edge">
<title>Rc:CancelConstruction&#45;&gt;Ragg:rover</title>
<path fill="none" stroke="black" d="M172.76,-216.22C200.47,-222.51 233.78,-230.32 263.58,-238 270.27,-239.72 277.31,-241.62 284.21,-243.53"/>
<polygon fill="black" stroke="black" points="282.84,-246.79 293.42,-246.12 284.73,-240.05 282.84,-246.79"/>
<text text-anchor="middle" x="252.58" y="-241.8" font-family="Times,serif" font-size="14.00">p:in</text>
</g>
<!-- Re:ConstructionCancelled&#45;&gt;Ragg:rover -->
<g id="edge17" class="edge">
<title>Re:ConstructionCancelled&#45;&gt;Ragg:rover</title>
<path fill="none" stroke="black" d="M512.44,-44.5C478.66,-34.45 431.96,-27.56 399.67,-51 343.52,-91.78 333.48,-180.79 332.25,-227.32"/>
<polygon fill="black" stroke="black" points="328.76,-227.15 332.13,-237.2 335.76,-227.24 328.76,-227.15"/>
<text text-anchor="middle" x="413.67" y="-54.8" font-family="Times,serif" font-size="14.00">p:in</text>
</g>
<!-- Re:ConstructionProgressed -->
<g id="node14" class="node">
<title>Re:ConstructionProgressed</title>
<ellipse fill="none" stroke="blue" cx="111.79" cy="-149" rx="100.98" ry="18"/>
<text text-anchor="middle" x="111.79" y="-145.3" font-family="Times,serif" font-size="14.00">e:ConstructionProgressed</text>
</g>
<!-- Re:ConstructionProgressed&#45;&gt;Ragg:rover -->
<g id="edge19" class="edge">
<title>Re:ConstructionProgressed&#45;&gt;Ragg:rover</title>
<path fill="none" stroke="black" d="M184.31,-161.87C197.7,-165.54 211.33,-170.18 223.58,-176 254.02,-190.46 284.23,-214.43 304.75,-232.55"/>
<polygon fill="black" stroke="black" points="302.3,-235.05 312.07,-239.15 306.99,-229.85 302.3,-235.05"/>
<text text-anchor="middle" x="252.58" y="-201.8" font-family="Times,serif" font-size="14.00">p:in</text>
</g>
<!-- Re:ResourceQuantityChanged -->
<g id="node15" class="node">
<title>Re:ResourceQuantityChanged</title>
<ellipse fill="none" stroke="blue" cx="111.79" cy="-95" rx="111.58" ry="18"/>
<text text-anchor="middle" x="111.79" y="-91.3" font-family="Times,serif" font-size="14.00">e:ResourceQuantityChanged</text>
</g>
<!-- Re:ResourceQuantityChanged&#45;&gt;Ragg:rover -->
<g id="edge20" class="edge">
<title>Re:ResourceQuantityChanged&#45;&gt;Ragg:rover</title>
<path fill="none" stroke="black" d="M191.79,-107.85C202.91,-111.46 213.86,-116.08 223.58,-122 266.5,-148.14 299.19,-198.11 316.59,-229.38"/>
<polygon fill="black" stroke="black" points="313.35,-230.74 321.18,-237.87 319.51,-227.41 313.35,-230.74"/>
<text text-anchor="middle" x="252.58" y="-158.8" font-family="Times,serif" font-size="14.00">p:in</text>
</g>
<!-- Re:RoverPositionChanged -->
<g id="node16" class="node">
<title>Re:RoverPositionChanged</title>
<ellipse fill="none" stroke="blue" cx="111.79" cy="-41" rx="98.58" ry="18"/>
<text text-anchor="middle" x="111.79" y="-37.3" font-family="Times,serif" font-size="14.00">e:RoverPositionChanged</text>
</g>
<!-- Re:RoverPositionChanged&#45;&gt;Ragg:rover -->
<g id="edge21" class="edge">
<title>Re:RoverPositionChanged&#45;&gt;Ragg:rover</title>
<path fill="none" stroke="black" d="M188.76,-52.56C200.96,-56.33 213.03,-61.35 223.58,-68 281.58,-104.57 311.19,-184.54 323.48,-227.81"/>
<polygon fill="black" stroke="black" points="320.05,-228.52 326.04,-237.26 326.81,-226.69 320.05,-228.52"/>
<text text-anchor="middle" x="252.58" y="-106.8" font-family="Times,serif" font-size="14.00">p:in</text>
</g>
<!-- Rc:EstablishColony -->
<g id="node17" class="node">
<title>Rc:EstablishColony</title>
<ellipse fill="none" stroke="blue" cx="111.79" cy="-535" rx="75.29" ry="18"/>
<text text-anchor="middle" x="111.79" y="-531.3" font-family="Times,serif" font-size="14.00">c:EstablishColony</text>
</g>
<!-- Ragg:colony -->
<g id="node18" class="node">
<title>Ragg:colony</title>
<ellipse fill="none" stroke="blue" cx="331.63" cy="-535" rx="50.09" ry="18"/>
<text text-anchor="middle" x="331.63" y="-531.3" font-family="Times,serif" font-size="14.00">agg:colony</text>
</g>
<!-- Rc:EstablishColony&#45;&gt;Ragg:colony -->
<g id="edge22" class="edge">
<title>Rc:EstablishColony&#45;&gt;Ragg:colony</title>
<path fill="none" stroke="black" d="M187.45,-535C214.26,-535 244.15,-535 269.66,-535"/>
<polygon fill="black" stroke="black" points="269.53,-538.5 279.53,-535 269.53,-531.5 269.53,-538.5"/>
<text text-anchor="middle" x="252.58" y="-538.8" font-family="Times,serif" font-size="14.00">p:in</text>
</g>
<!-- Re:ColonyClaimed -->
<g id="node19" class="node">
<title>Re:ColonyClaimed</title>
<ellipse fill="none" stroke="blue" cx="556.16" cy="-539" rx="73.39" ry="18"/>
<text text-anchor="middle" x="556.16" y="-535.3" font-family="Times,serif" font-size="14.00">e:ColonyClaimed</text>
</g>
<!-- Ragg:colony&#45;&gt;Re:ColonyClaimed -->
<g id="edge24" class="edge">
<title>Ragg:colony&#45;&gt;Re:ColonyClaimed</title>
<path fill="none" stroke="black" d="M382.01,-535.89C408.24,-536.36 441.2,-536.95 471.3,-537.49"/>
<polygon fill="black" stroke="black" points="471.1,-540.99 481.16,-537.67 471.23,-533.99 471.1,-540.99"/>
<text text-anchor="middle" x="413.67" y="-539.8" font-family="Times,serif" font-size="14.00">p:out</text>
</g>
<!-- Re:ColonyClaimed&#45;&gt;Ragg:colony -->
<g id="edge23" class="edge">
<title>Re:ColonyClaimed&#45;&gt;Ragg:colony</title>
<path fill="none" stroke="black" d="M500.87,-526.88C471.02,-521.69 433.33,-517.52 399.67,-521 394.95,-521.49 390.07,-522.16 385.19,-522.96"/>
<polygon fill="black" stroke="black" points="384.61,-519.51 375.39,-524.72 385.86,-526.4 384.61,-519.51"/>
<text text-anchor="middle" x="413.67" y="-524.8" font-family="Times,serif" font-size="14.00">p:in</text>
</g>
</g>
</svg>
