<?xml version="1.0" encoding="UTF-8" standalone="no"?>
<!DOCTYPE svg PUBLIC "-//W3C//DTD SVG 1.1//EN"
 "http://www.w3.org/Graphics/SVG/1.1/DTD/svg11.dtd">
<!-- Generated by graphviz version 7.1.0 (20230121.1956)
 -->
<!-- Pages: 1 -->
<svg width="1174pt" height="848pt"
 viewBox="0.00 0.00 1173.62 848.36" xmlns="http://www.w3.org/2000/svg" xmlns:xlink="http://www.w3.org/1999/xlink">
<g id="graph0" class="graph" transform="scale(1 1) rotate(0) translate(4 844.36)">
<polygon fill="white" stroke="none" points="-4,4 -4,-844.36 1169.62,-844.36 1169.62,4 -4,4"/>
<text text-anchor="middle" x="582.81" y="-7.8" font-family="Times,serif" font-size="14.00">Bank Account Example</text>
<!-- Rc:CreateAccount -->
<g id="node1" class="node">
<title>Rc:CreateAccount</title>
<ellipse fill="none" stroke="blue" cx="92.94" cy="-554.36" rx="69.59" ry="18"/>
<text text-anchor="middle" x="92.94" y="-550.66" font-family="Times,serif" font-size="14.00">c:CreateAccount</text>
</g>
<!-- Ragg:bankaccount -->
<g id="node2" class="node">
<title>Ragg:bankaccount</title>
<ellipse fill="none" stroke="blue" cx="314.08" cy="-473.36" rx="70.39" ry="18"/>
<text text-anchor="middle" x="314.08" y="-469.66" font-family="Times,serif" font-size="14.00">agg:bankaccount</text>
</g>
<!-- Rc:CreateAccount&#45;&gt;Ragg:bankaccount -->
<g id="edge1" class="edge">
<title>Rc:CreateAccount&#45;&gt;Ragg:bankaccount</title>
<path fill="none" stroke="black" d="M142,-541.39C156.24,-537.24 171.79,-532.4 185.88,-527.36 213.73,-517.4 244.24,-504.51 268.41,-493.82"/>
<polygon fill="black" stroke="black" points="269.6,-497.13 277.3,-489.86 266.74,-490.73 269.6,-497.13"/>
<text text-anchor="middle" x="214.88" y="-523.16" font-family="Times,serif" font-size="14.00">p:in</text>
</g>
<!-- Re:AccountCreated -->
<g id="node10" class="node">
<title>Re:AccountCreated</title>
<ellipse fill="none" stroke="blue" cx="567.86" cy="-720.36" rx="74.19" ry="18"/>
<text text-anchor="middle" x="567.86" y="-716.66" font-family="Times,serif" font-size="14.00">e:AccountCreated</text>
</g>
<!-- Ragg:bankaccount&#45;&gt;Re:AccountCreated -->
<g id="edge9" class="edge">
<title>Ragg:bankaccount&#45;&gt;Re:AccountCreated</title>
<path fill="none" stroke="black" d="M314.57,-491.81C314.32,-541.43 321.34,-677.93 402.27,-736.36 436.34,-760.96 485.25,-752.2 520.9,-740.18"/>
<polygon fill="black" stroke="black" points="521.84,-743.56 530.08,-736.9 519.48,-736.97 521.84,-743.56"/>
<text text-anchor="middle" x="416.27" y="-752.16" font-family="Times,serif" font-size="14.00">p:out</text>
</g>
<!-- Re:WireFundsReserved -->
<g id="node11" class="node">
<title>Re:WireFundsReserved</title>
<ellipse fill="none" stroke="blue" cx="567.86" cy="-450.36" rx="89.08" ry="18"/>
<text text-anchor="middle" x="567.86" y="-446.66" font-family="Times,serif" font-size="14.00">e:WireFundsReserved</text>
</g>
<!-- Ragg:bankaccount&#45;&gt;Re:WireFundsReserved -->
<g id="edge10" class="edge">
<title>Ragg:bankaccount&#45;&gt;Re:WireFundsReserved</title>
<path fill="none" stroke="black" d="M366.94,-461.12C378.51,-458.82 390.76,-456.71 402.27,-455.36 423.21,-452.9 445.74,-451.44 467.21,-450.61"/>
<polygon fill="black" stroke="black" points="467.28,-454.11 477.16,-450.28 467.05,-447.12 467.28,-454.11"/>
<text text-anchor="middle" x="416.27" y="-459.16" font-family="Times,serif" font-size="14.00">p:out</text>
</g>
<!-- Re:FundsWithdrawn -->
<g id="node12" class="node">
<title>Re:FundsWithdrawn</title>
<ellipse fill="none" stroke="blue" cx="567.86" cy="-644.36" rx="77.99" ry="18"/>
<text text-anchor="middle" x="567.86" y="-640.66" font-family="Times,serif" font-size="14.00">e:FundsWithdrawn</text>
</g>
<!-- Ragg:bankaccount&#45;&gt;Re:FundsWithdrawn -->
<g id="edge11" class="edge">
<title>Ragg:bankaccount&#45;&gt;Re:FundsWithdrawn</title>
<path fill="none" stroke="black" d="M317.22,-491.64C322.91,-530.77 342.3,-622.15 402.27,-660.36 436.68,-682.28 483.61,-674.93 518.56,-664.06"/>
<polygon fill="black" stroke="black" points="519.63,-667.39 528.01,-660.91 517.42,-660.75 519.63,-667.39"/>
<text text-anchor="middle" x="416.27" y="-674.16" font-family="Times,serif" font-size="14.00">p:out</text>
</g>
<!-- Re:WireFundsReleased -->
<g id="node13" class="node">
<title>Re:WireFundsReleased</title>
<ellipse fill="none" stroke="blue" cx="567.86" cy="-569.36" rx="87.99" ry="18"/>
<text text-anchor="middle" x="567.86" y="-565.66" font-family="Times,serif" font-size="14.00">e:WireFundsReleased</text>
</g>
<!-- Ragg:bankaccount&#45;&gt;Re:WireFundsReleased -->
<g id="edge12" class="edge">
<title>Ragg:bankaccount&#45;&gt;Re:WireFundsReleased</title>
<path fill="none" stroke="black" d="M322.87,-491.37C335.31,-517.51 362.38,-564.97 402.27,-584.36 436.35,-600.93 479.07,-596.41 512.45,-588.15"/>
<polygon fill="black" stroke="black" points="513.16,-591.58 521.92,-585.62 511.36,-584.82 513.16,-591.58"/>
<text text-anchor="middle" x="416.27" y="-596.16" font-family="Times,serif" font-size="14.00">p:out</text>
</g>
<!-- Re:InterbankTransferInitiated -->
<g id="node14" class="node">
<title>Re:InterbankTransferInitiated</title>
<ellipse fill="none" stroke="blue" cx="567.86" cy="-296.36" rx="109.68" ry="18"/>
<text text-anchor="middle" x="567.86" y="-292.66" font-family="Times,serif" font-size="14.00">e:InterbankTransferInitiated</text>
</g>
<!-- Ragg:bankaccount&#45;&gt;Re:InterbankTransferInitiated -->
<g id="edge13" class="edge">
<title>Ragg:bankaccount&#45;&gt;Re:InterbankTransferInitiated</title>
<path fill="none" stroke="black" d="M318.29,-454.95C325.72,-418.62 347.81,-338.25 402.27,-303.36 423.77,-289.59 450.3,-284.57 475.73,-283.88"/>
<polygon fill="black" stroke="black" points="475.42,-287.38 485.41,-283.84 475.4,-280.38 475.42,-287.38"/>
<text text-anchor="middle" x="416.27" y="-307.16" font-family="Times,serif" font-size="14.00">p:out</text>
</g>
<!-- Re:WireTransferRequested -->
<g id="node15" class="node">
<title>Re:WireTransferRequested</title>
<ellipse fill="none" stroke="blue" cx="567.86" cy="-352.36" rx="100.98" ry="18"/>
<text text-anchor="middle" x="567.86" y="-348.66" font-family="Times,serif" font-size="14.00">e:WireTransferRequested</text>
</g>
<!-- Ragg:bankaccount&#45;&gt;Re:WireTransferRequested -->
<g id="edge14" class="edge">
<title>Ragg:bankaccount&#45;&gt;Re:WireTransferRequested</title>
<path fill="none" stroke="black" d="M322.14,-455.08C333.95,-427.4 360.6,-375.81 402.27,-354.36 426.84,-341.72 456.33,-338.34 483.51,-339.03"/>
<polygon fill="black" stroke="black" points="483.34,-342.53 493.49,-339.49 483.66,-335.53 483.34,-342.53"/>
<text text-anchor="middle" x="416.27" y="-358.16" font-family="Times,serif" font-size="14.00">p:out</text>
</g>
<!-- Re:FundsDeposited -->
<g id="node16" class="node">
<title>Re:FundsDeposited</title>
<ellipse fill="none" stroke="blue" cx="567.86" cy="-515.36" rx="74.19" ry="18"/>
<text text-anchor="middle" x="567.86" y="-511.66" font-family="Times,serif" font-size="14.00">e:FundsDeposited</text>
</g>
<!-- Ragg:bankaccount&#45;&gt;Re:FundsDeposited -->
<g id="edge15" class="edge">
<title>Ragg:bankaccount&#45;&gt;Re:FundsDeposited</title>
<path fill="none" stroke="black" d="M347.78,-489.56C363.8,-496.69 383.61,-504.34 402.27,-508.36 428.09,-513.92 456.69,-516.38 482.72,-517.25"/>
<polygon fill="black" stroke="black" points="482.48,-520.75 492.57,-517.5 482.66,-513.75 482.48,-520.75"/>
<text text-anchor="middle" x="416.27" y="-516.16" font-family="Times,serif" font-size="14.00">p:out</text>
</g>
<!-- Re:ReservedFundsWithdrawn -->
<g id="node17" class="node">
<title>Re:ReservedFundsWithdrawn</title>
<ellipse fill="none" stroke="blue" cx="567.86" cy="-796.36" rx="110.48" ry="18"/>
<text text-anchor="middle" x="567.86" y="-792.66" font-family="Times,serif" font-size="14.00">e:ReservedFundsWithdrawn</text>
</g>
<!-- Ragg:bankaccount&#45;&gt;Re:ReservedFundsWithdrawn -->
<g id="edge16" class="edge">
<title>Ragg:bankaccount&#45;&gt;Re:ReservedFundsWithdrawn</title>
<path fill="none" stroke="black" d="M316.9,-491.75C323.74,-556.47 350.16,-771.96 402.27,-812.36 434.86,-837.63 482.7,-829.5 518.41,-817.5"/>
<polygon fill="black" stroke="black" points="519.41,-820.86 527.65,-814.2 517.05,-814.27 519.41,-820.86"/>
<text text-anchor="middle" x="416.27" y="-829.16" font-family="Times,serif" font-size="14.00">p:out</text>
</g>
<!-- Rc:ReserveFunds -->
<g id="node3" class="node">
<title>Rc:ReserveFunds</title>
<ellipse fill="none" stroke="blue" cx="1059.03" cy="-252.36" rx="66.89" ry="18"/>
<text text-anchor="middle" x="1059.03" y="-248.66" font-family="Times,serif" font-size="14.00">c:ReserveFunds</text>
</g>
<!-- Rc:ReserveFunds&#45;&gt;Ragg:bankaccount -->
<g id="edge2" class="edge">
<title>Rc:ReserveFunds&#45;&gt;Ragg:bankaccount</title>
<path fill="none" stroke="black" d="M1034.74,-269.5C982.84,-306.49 852.39,-392.96 727.45,-423.36 727.45,-423.36 448.27,-423.36 448.27,-423.36 427.81,-423.8 421.98,-419.84 402.27,-425.36 383.44,-430.64 364.21,-440.64 348.62,-450.15"/>
<polygon fill="black" stroke="black" points="346.8,-447.16 340.22,-455.46 350.54,-453.07 346.8,-447.16"/>
<text text-anchor="middle" x="716.45" y="-427.16" font-family="Times,serif" font-size="14.00">p:in</text>
</g>
<!-- Rc:ReleaseReservedFunds -->
<g id="node4" class="node">
<title>Rc:ReleaseReservedFunds</title>
<ellipse fill="none" stroke="blue" cx="1059.03" cy="-190.36" rx="98.58" ry="18"/>
<text text-anchor="middle" x="1059.03" y="-186.66" font-family="Times,serif" font-size="14.00">c:ReleaseReservedFunds</text>
</g>
<!-- Rc:ReleaseReservedFunds&#45;&gt;Ragg:bankaccount -->
<g id="edge3" class="edge">
<title>Rc:ReleaseReservedFunds&#45;&gt;Ragg:bankaccount</title>
<path fill="none" stroke="black" d="M989.43,-177.27C849.19,-152.07 535.5,-104.13 448.27,-161.36 350.2,-225.71 324.11,-378.77 317.36,-443.57"/>
<polygon fill="black" stroke="black" points="313.88,-443.16 316.42,-453.44 320.85,-443.82 313.88,-443.16"/>
<text text-anchor="middle" x="716.45" y="-145.16" font-family="Times,serif" font-size="14.00">p:in</text>
</g>
<!-- Rc:WithdrawFunds -->
<g id="node5" class="node">
<title>Rc:WithdrawFunds</title>
<ellipse fill="none" stroke="blue" cx="92.94" cy="-500.36" rx="73.39" ry="18"/>
<text text-anchor="middle" x="92.94" y="-496.66" font-family="Times,serif" font-size="14.00">c:WithdrawFunds</text>
</g>
<!-- Rc:WithdrawFunds&#45;&gt;Ragg:bankaccount -->
<g id="edge4" class="edge">
<title>Rc:WithdrawFunds&#45;&gt;Ragg:bankaccount</title>
<path fill="none" stroke="black" d="M159.39,-492.3C184.33,-489.22 212.93,-485.7 238.64,-482.53"/>
<polygon fill="black" stroke="black" points="238.85,-486.03 248.34,-481.34 237.99,-479.08 238.85,-486.03"/>
<text text-anchor="middle" x="214.88" y="-489.16" font-family="Times,serif" font-size="14.00">p:in</text>
</g>
<!-- Rc:DepositFunds -->
<g id="node6" class="node">
<title>Rc:DepositFunds</title>
<ellipse fill="none" stroke="blue" cx="92.94" cy="-446.36" rx="65.79" ry="18"/>
<text text-anchor="middle" x="92.94" y="-442.66" font-family="Times,serif" font-size="14.00">c:DepositFunds</text>
</g>
<!-- Rc:DepositFunds&#45;&gt;Ragg:bankaccount -->
<g id="edge5" class="edge">
<title>Rc:DepositFunds&#45;&gt;Ragg:bankaccount</title>
<path fill="none" stroke="black" d="M153.53,-453.7C179.82,-456.94 210.99,-460.78 238.78,-464.21"/>
<polygon fill="black" stroke="black" points="238.2,-467.66 248.55,-465.41 239.05,-460.71 238.2,-467.66"/>
<text text-anchor="middle" x="214.88" y="-465.16" font-family="Times,serif" font-size="14.00">p:in</text>
</g>
<!-- Rc:RequestWireTransfer -->
<g id="node7" class="node">
<title>Rc:RequestWireTransfer</title>
<ellipse fill="none" stroke="blue" cx="92.94" cy="-392.36" rx="92.88" ry="18"/>
<text text-anchor="middle" x="92.94" y="-388.66" font-family="Times,serif" font-size="14.00">c:RequestWireTransfer</text>
</g>
<!-- Rc:RequestWireTransfer&#45;&gt;Ragg:bankaccount -->
<g id="edge6" class="edge">
<title>Rc:RequestWireTransfer&#45;&gt;Ragg:bankaccount</title>
<path fill="none" stroke="black" d="M148.24,-407.17C160.7,-410.88 173.82,-415.04 185.88,-419.36 213.73,-429.32 244.24,-442.21 268.41,-452.89"/>
<polygon fill="black" stroke="black" points="266.74,-455.99 277.3,-456.86 269.6,-449.59 266.74,-455.99"/>
<text text-anchor="middle" x="214.88" y="-437.16" font-family="Times,serif" font-size="14.00">p:in</text>
</g>
<!-- Rc:InitiateInterbankTransfer -->
<g id="node8" class="node">
<title>Rc:InitiateInterbankTransfer</title>
<ellipse fill="none" stroke="blue" cx="1059.03" cy="-135.36" rx="105.08" ry="18"/>
<text text-anchor="middle" x="1059.03" y="-131.66" font-family="Times,serif" font-size="14.00">c:InitiateInterbankTransfer</text>
</g>
<!-- Rc:InitiateInterbankTransfer&#45;&gt;Ragg:bankaccount -->
<g id="edge7" class="edge">
<title>Rc:InitiateInterbankTransfer&#45;&gt;Ragg:bankaccount</title>
<path fill="none" stroke="black" d="M997.63,-120.31C884.79,-95.3 636.38,-55.05 448.27,-131.36 327.18,-180.48 314.62,-370.38 314.42,-443.98"/>
<polygon fill="black" stroke="black" points="310.92,-443.66 314.47,-453.64 317.92,-443.62 310.92,-443.66"/>
<text text-anchor="middle" x="716.45" y="-91.16" font-family="Times,serif" font-size="14.00">p:in</text>
</g>
<!-- Rc:WithdrawReservedFunds -->
<g id="node9" class="node">
<title>Rc:WithdrawReservedFunds</title>
<ellipse fill="none" stroke="blue" cx="1059.03" cy="-58.36" rx="106.68" ry="18"/>
<text text-anchor="middle" x="1059.03" y="-54.66" font-family="Times,serif" font-size="14.00">c:WithdrawReservedFunds</text>
</g>
<!-- Rc:WithdrawReservedFunds&#45;&gt;Ragg:bankaccount -->
<g id="edge8" class="edge">
<title>Rc:WithdrawReservedFunds&#45;&gt;Ragg:bankaccount</title>
<path fill="none" stroke="black" d="M990.08,-44.29C872.64,-23.52 627.08,4.02 448.27,-84.36 420.31,-98.18 416.79,-109.76 402.27,-137.36 347.27,-241.89 325.38,-383.31 318.14,-443.86"/>
<polygon fill="black" stroke="black" points="314.67,-443.35 317.02,-453.69 321.63,-444.15 314.67,-443.35"/>
<text text-anchor="middle" x="716.45" y="-29.16" font-family="Times,serif" font-size="14.00">p:in</text>
</g>
<!-- Re:AccountCreated&#45;&gt;Ragg:bankaccount -->
<g id="edge17" class="edge">
<title>Re:AccountCreated&#45;&gt;Ragg:bankaccount</title>
<path fill="none" stroke="black" d="M493.54,-721.61C462.42,-718.59 427.57,-710.1 402.27,-689.36 344.3,-641.84 324.56,-549.89 318.09,-502.76"/>
<polygon fill="black" stroke="black" points="321.59,-502.53 316.87,-493.04 314.64,-503.4 321.59,-502.53"/>
<text text-anchor="middle" x="416.27" y="-709.16" font-family="Times,serif" font-size="14.00">p:in</text>
</g>
<!-- Rproj:bankaccount -->
<g id="node21" class="node">
<title>Rproj:bankaccount</title>
<ellipse fill="none" stroke="blue" cx="816.94" cy="-548.36" rx="71.49" ry="18"/>
<text text-anchor="middle" x="816.94" y="-544.66" font-family="Times,serif" font-size="14.00">proj:bankaccount</text>
</g>
<!-- Re:AccountCreated&#45;&gt;Rproj:bankaccount -->
<g id="edge34" class="edge">
<title>Re:AccountCreated&#45;&gt;Rproj:bankaccount</title>
<path fill="none" stroke="black" d="M614.46,-706.03C637.37,-697.73 664.96,-686.02 687.45,-671.36 729.52,-643.94 769.99,-601.72 793.92,-574.57"/>
<polygon fill="black" stroke="black" points="796.47,-576.97 800.38,-567.13 791.18,-572.38 796.47,-576.97"/>
<text text-anchor="middle" x="716.45" y="-661.16" font-family="Times,serif" font-size="14.00">p:in</text>
</g>
<!-- Re:WireFundsReserved&#45;&gt;Ragg:bankaccount -->
<g id="edge18" class="edge">
<title>Re:WireFundsReserved&#45;&gt;Ragg:bankaccount</title>
<path fill="none" stroke="black" d="M511.88,-436.05C479.66,-429.8 438.33,-425.48 402.27,-433.36 385.64,-436.99 368.4,-444.1 353.67,-451.33"/>
<polygon fill="black" stroke="black" points="352.1,-448.2 344.79,-455.87 355.29,-454.43 352.1,-448.2"/>
<text text-anchor="middle" x="416.27" y="-437.16" font-family="Times,serif" font-size="14.00">p:in</text>
</g>
<!-- Rpm:bankaccount -->
<g id="node18" class="node">
<title>Rpm:bankaccount</title>
<ellipse fill="none" stroke="blue" cx="816.94" cy="-223.36" rx="69.59" ry="18"/>
<text text-anchor="middle" x="816.94" y="-219.66" font-family="Times,serif" font-size="14.00">pm:bankaccount</text>
</g>
<!-- Re:WireFundsReserved&#45;&gt;Rpm:bankaccount -->
<g id="edge26" class="edge">
<title>Re:WireFundsReserved&#45;&gt;Rpm:bankaccount</title>
<path fill="none" stroke="black" d="M633.16,-437.8C664.47,-429.05 700.97,-414.63 727.45,-391.36 770.53,-353.49 795.93,-289.49 807.78,-252.37"/>
<polygon fill="black" stroke="black" points="811,-253.81 810.59,-243.22 804.31,-251.76 811,-253.81"/>
<text text-anchor="middle" x="716.45" y="-408.16" font-family="Times,serif" font-size="14.00">p:in</text>
</g>
<!-- Re:WireFundsReserved&#45;&gt;Rproj:bankaccount -->
<g id="edge35" class="edge">
<title>Re:WireFundsReserved&#45;&gt;Rproj:bankaccount</title>
<path fill="none" stroke="black" d="M620.43,-465.32C641.43,-471.82 665.81,-479.88 687.45,-488.36 716.83,-499.87 749.01,-514.9 773.81,-527.04"/>
<polygon fill="black" stroke="black" points="772.09,-530.09 782.6,-531.37 775.18,-523.81 772.09,-530.09"/>
<text text-anchor="middle" x="716.45" y="-508.16" font-family="Times,serif" font-size="14.00">p:in</text>
</g>
<!-- Re:FundsWithdrawn&#45;&gt;Ragg:bankaccount -->
<g id="edge19" class="edge">
<title>Re:FundsWithdrawn&#45;&gt;Ragg:bankaccount</title>
<path fill="none" stroke="black" d="M490.19,-641.74C460.62,-637.62 427.84,-628.95 402.27,-611.36 363.21,-584.49 337.97,-533.81 325.16,-501.92"/>
<polygon fill="black" stroke="black" points="328.55,-500.97 321.69,-492.9 322.02,-503.49 328.55,-500.97"/>
<text text-anchor="middle" x="416.27" y="-629.16" font-family="Times,serif" font-size="14.00">p:in</text>
</g>
<!-- Re:FundsWithdrawn&#45;&gt;Rproj:bankaccount -->
<g id="edge36" class="edge">
<title>Re:FundsWithdrawn&#45;&gt;Rproj:bankaccount</title>
<path fill="none" stroke="black" d="M609.11,-628.72C652.02,-612.05 720.04,-585.62 766.26,-567.66"/>
<polygon fill="black" stroke="black" points="767.47,-570.95 775.53,-564.06 764.94,-564.42 767.47,-570.95"/>
<text text-anchor="middle" x="716.45" y="-594.16" font-family="Times,serif" font-size="14.00">p:in</text>
</g>
<!-- Re:WireFundsReleased&#45;&gt;Ragg:bankaccount -->
<g id="edge20" class="edge">
<title>Re:WireFundsReleased&#45;&gt;Ragg:bankaccount</title>
<path fill="none" stroke="black" d="M495.37,-558.79C465.76,-552.91 431.58,-544.13 402.27,-531.36 382.07,-522.56 361.45,-509.09 345.34,-497.34"/>
<polygon fill="black" stroke="black" points="347.73,-494.76 337.62,-491.58 343.54,-500.37 347.73,-494.76"/>
<text text-anchor="middle" x="416.27" y="-544.16" font-family="Times,serif" font-size="14.00">p:in</text>
</g>
<!-- Re:WireFundsReleased&#45;&gt;Rproj:bankaccount -->
<g id="edge37" class="edge">
<title>Re:WireFundsReleased&#45;&gt;Rproj:bankaccount</title>
<path fill="none" stroke="black" d="M649.76,-562.48C677.97,-560.09 709.55,-557.4 737.55,-555.02"/>
<polygon fill="black" stroke="black" points="737.72,-558.52 747.39,-554.19 737.13,-551.55 737.72,-558.52"/>
<text text-anchor="middle" x="716.45" y="-561.16" font-family="Times,serif" font-size="14.00">p:in</text>
</g>
<!-- Re:InterbankTransferInitiated&#45;&gt;Ragg:bankaccount -->
<g id="edge21" class="edge">
<title>Re:InterbankTransferInitiated&#45;&gt;Ragg:bankaccount</title>
<path fill="none" stroke="black" d="M498.59,-282.11C457.1,-274.19 410.54,-266.93 402.27,-272.36 343.74,-310.77 324.3,-397.85 318,-443.76"/>
<polygon fill="black" stroke="black" points="314.55,-443.16 316.79,-453.51 321.49,-444.02 314.55,-443.16"/>
<text text-anchor="middle" x="416.27" y="-276.16" font-family="Times,serif" font-size="14.00">p:in</text>
</g>
<!-- Re:InterbankTransferInitiated&#45;&gt;Rpm:bankaccount -->
<g id="edge29" class="edge">
<title>Re:InterbankTransferInitiated&#45;&gt;Rpm:bankaccount</title>
<path fill="none" stroke="black" d="M638.6,-282.28C654.76,-278.52 671.8,-274.15 687.45,-269.36 695.66,-266.84 697.4,-265.34 705.45,-262.36 724.18,-255.42 744.79,-248.06 763.09,-241.63"/>
<polygon fill="black" stroke="black" points="764.15,-244.97 772.43,-238.36 761.83,-238.37 764.15,-244.97"/>
<text text-anchor="middle" x="716.45" y="-266.16" font-family="Times,serif" font-size="14.00">p:in</text>
</g>
<!-- Re:InterbankTransferInitiated&#45;&gt;Rproj:bankaccount -->
<g id="edge38" class="edge">
<title>Re:InterbankTransferInitiated&#45;&gt;Rproj:bankaccount</title>
<path fill="none" stroke="black" d="M655.71,-307.34C681.99,-314.72 708.8,-326.99 727.45,-347.36 773.71,-397.89 798.63,-476.51 809.37,-518.89"/>
<polygon fill="black" stroke="black" points="805.97,-519.72 811.73,-528.61 812.77,-518.07 805.97,-519.72"/>
<text text-anchor="middle" x="716.45" y="-351.16" font-family="Times,serif" font-size="14.00">p:in</text>
</g>
<!-- Re:WireTransferRequested&#45;&gt;Ragg:bankaccount -->
<g id="edge22" class="edge">
<title>Re:WireTransferRequested&#45;&gt;Ragg:bankaccount</title>
<path fill="none" stroke="black" d="M513.63,-336.72C472.98,-326.11 420.87,-315.77 402.27,-326.36 358.03,-351.56 333.92,-409.03 322.83,-444.18"/>
<polygon fill="black" stroke="black" points="319.49,-443.13 319.99,-453.72 326.2,-445.13 319.49,-443.13"/>
<text text-anchor="middle" x="416.27" y="-330.16" font-family="Times,serif" font-size="14.00">p:in</text>
</g>
<!-- Re:WireTransferRequested&#45;&gt;Rpm:bankaccount -->
<g id="edge25" class="edge">
<title>Re:WireTransferRequested&#45;&gt;Rpm:bankaccount</title>
<path fill="none" stroke="black" d="M647.51,-340.97C661.5,-336.8 675.43,-331.12 687.45,-323.36 698.36,-316.32 696.02,-309.28 705.45,-300.36 727.5,-279.5 755.59,-260 777.93,-245.84"/>
<polygon fill="black" stroke="black" points="779.51,-248.98 786.15,-240.72 775.81,-243.04 779.51,-248.98"/>
<text text-anchor="middle" x="716.45" y="-304.16" font-family="Times,serif" font-size="14.00">p:in</text>
</g>
<!-- Re:WireTransferRequested&#45;&gt;Rproj:bankaccount -->
<g id="edge39" class="edge">
<title>Re:WireTransferRequested&#45;&gt;Rproj:bankaccount</title>
<path fill="none" stroke="black" d="M669.15,-353.11C689.85,-357.07 710.49,-364.18 727.45,-376.36 775.63,-410.97 799.45,-479.71 809.59,-519"/>
<polygon fill="black" stroke="black" points="806.13,-519.59 811.9,-528.48 812.94,-517.93 806.13,-519.59"/>
<text text-anchor="middle" x="716.45" y="-380.16" font-family="Times,serif" font-size="14.00">p:in</text>
</g>
<!-- Re:FundsDeposited&#45;&gt;Ragg:bankaccount -->
<g id="edge23" class="edge">
<title>Re:FundsDeposited&#45;&gt;Ragg:bankaccount</title>
<path fill="none" stroke="black" d="M509.82,-503.84C485.38,-499.08 456.47,-493.67 430.27,-489.36 416.96,-487.17 402.76,-485.03 389.03,-483.07"/>
<polygon fill="black" stroke="black" points="389.53,-479.61 379.14,-481.68 388.55,-486.54 389.53,-479.61"/>
<text text-anchor="middle" x="416.27" y="-493.16" font-family="Times,serif" font-size="14.00">p:in</text>
</g>
<!-- Re:FundsDeposited&#45;&gt;Rproj:bankaccount -->
<g id="edge40" class="edge">
<title>Re:FundsDeposited&#45;&gt;Rproj:bankaccount</title>
<path fill="none" stroke="black" d="M633.78,-524.03C666.92,-528.46 707.39,-533.86 741.76,-538.45"/>
<polygon fill="black" stroke="black" points="741.29,-541.92 751.66,-539.77 742.22,-534.98 741.29,-541.92"/>
<text text-anchor="middle" x="716.45" y="-539.16" font-family="Times,serif" font-size="14.00">p:in</text>
</g>
<!-- Re:ReservedFundsWithdrawn&#45;&gt;Ragg:bankaccount -->
<g id="edge24" class="edge">
<title>Re:ReservedFundsWithdrawn&#45;&gt;Ragg:bankaccount</title>
<path fill="none" stroke="black" d="M457.74,-794.4C437.42,-789.53 417.75,-781.17 402.27,-767.36 324.41,-697.89 314.66,-562.46 314.37,-502.79"/>
<polygon fill="black" stroke="black" points="317.87,-503.12 314.42,-493.1 310.87,-503.08 317.87,-503.12"/>
<text text-anchor="middle" x="416.27" y="-787.16" font-family="Times,serif" font-size="14.00">p:in</text>
</g>
<!-- Re:ReservedFundsWithdrawn&#45;&gt;Rproj:bankaccount -->
<g id="edge41" class="edge">
<title>Re:ReservedFundsWithdrawn&#45;&gt;Rproj:bankaccount</title>
<path fill="none" stroke="black" d="M626.11,-780.62C646.96,-772.95 669.74,-762.12 687.45,-747.36 744.73,-699.63 785.33,-619.7 804.14,-577.11"/>
<polygon fill="black" stroke="black" points="807.31,-578.6 808.06,-568.03 800.88,-575.83 807.31,-578.6"/>
<text text-anchor="middle" x="716.45" y="-733.16" font-family="Times,serif" font-size="14.00">p:in</text>
</g>
<!-- Rpm:bankaccount&#45;&gt;Rc:ReserveFunds -->
<g id="edge30" class="edge">
<title>Rpm:bankaccount&#45;&gt;Rc:ReserveFunds</title>
<path fill="none" stroke="black" d="M880.71,-230.94C913.04,-234.85 952.61,-239.63 986.16,-243.68"/>
<polygon fill="black" stroke="black" points="985.44,-247.12 995.78,-244.84 986.28,-240.17 985.44,-247.12"/>
<text text-anchor="middle" x="920.44" y="-241.16" font-family="Times,serif" font-size="14.00">p:out</text>
</g>
<!-- Rpm:bankaccount&#45;&gt;Rc:ReleaseReservedFunds -->
<g id="edge33" class="edge">
<title>Rpm:bankaccount&#45;&gt;Rc:ReleaseReservedFunds</title>
<path fill="none" stroke="black" d="M879.15,-214.95C906.13,-211.24 938.37,-206.81 968.01,-202.73"/>
<polygon fill="black" stroke="black" points="968.29,-206.23 977.72,-201.4 967.34,-199.29 968.29,-206.23"/>
<text text-anchor="middle" x="920.44" y="-215.16" font-family="Times,serif" font-size="14.00">p:out</text>
</g>
<!-- Rpm:bankaccount&#45;&gt;Rc:InitiateInterbankTransfer -->
<g id="edge31" class="edge">
<title>Rpm:bankaccount&#45;&gt;Rc:InitiateInterbankTransfer</title>
<path fill="none" stroke="black" d="M850.23,-207.19C877.11,-194.17 916.64,-176 952.44,-163.36 962.83,-159.69 973.95,-156.24 984.93,-153.11"/>
<polygon fill="black" stroke="black" points="985.67,-156.53 994.37,-150.48 983.79,-149.79 985.67,-156.53"/>
<text text-anchor="middle" x="920.44" y="-185.16" font-family="Times,serif" font-size="14.00">p:out</text>
</g>
<!-- Rpm:bankaccount&#45;&gt;Rc:WithdrawReservedFunds -->
<g id="edge32" class="edge">
<title>Rpm:bankaccount&#45;&gt;Rc:WithdrawReservedFunds</title>
<path fill="none" stroke="black" d="M835.42,-205.71C859.98,-181.58 906.8,-137.92 952.44,-108.36 969.02,-97.62 988.26,-87.82 1005.75,-79.79"/>
<polygon fill="black" stroke="black" points="1006.73,-83.18 1014.42,-75.89 1003.87,-76.8 1006.73,-83.18"/>
<text text-anchor="middle" x="920.44" y="-144.16" font-family="Times,serif" font-size="14.00">p:out</text>
</g>
<!-- Re:InterbankTransferCompleted -->
<g id="node19" class="node">
<title>Re:InterbankTransferCompleted</title>
<ellipse fill="none" stroke="blue" cx="567.86" cy="-242.36" rx="119.68" ry="18"/>
<text text-anchor="middle" x="567.86" y="-238.66" font-family="Times,serif" font-size="14.00">e:InterbankTransferCompleted</text>
</g>
<!-- Re:InterbankTransferCompleted&#45;&gt;Rpm:bankaccount -->
<g id="edge27" class="edge">
<title>Re:InterbankTransferCompleted&#45;&gt;Rpm:bankaccount</title>
<path fill="none" stroke="black" d="M653.95,-229.52C670.97,-227.41 688.75,-225.53 705.45,-224.36 715.18,-223.68 725.41,-223.23 735.55,-222.94"/>
<polygon fill="black" stroke="black" points="735.5,-226.44 745.42,-222.72 735.34,-219.45 735.5,-226.44"/>
<text text-anchor="middle" x="716.45" y="-228.16" font-family="Times,serif" font-size="14.00">p:in</text>
</g>
<!-- Re:InterbankTransferFailed -->
<g id="node20" class="node">
<title>Re:InterbankTransferFailed</title>
<ellipse fill="none" stroke="blue" cx="567.86" cy="-188.36" rx="102.88" ry="18"/>
<text text-anchor="middle" x="567.86" y="-184.66" font-family="Times,serif" font-size="14.00">e:InterbankTransferFailed</text>
</g>
<!-- Re:InterbankTransferFailed&#45;&gt;Rpm:bankaccount -->
<g id="edge28" class="edge">
<title>Re:InterbankTransferFailed&#45;&gt;Rpm:bankaccount</title>
<path fill="none" stroke="black" d="M661.75,-195.99C683.37,-198.25 706.26,-201.03 727.45,-204.36 735.76,-205.67 744.47,-207.26 753.04,-208.96"/>
<polygon fill="black" stroke="black" points="752.2,-212.36 762.7,-210.94 753.61,-205.5 752.2,-212.36"/>
<text text-anchor="middle" x="716.45" y="-208.16" font-family="Times,serif" font-size="14.00">p:in</text>
</g>
</g>
</svg>
